<svg width="24" height="24" viewBox="0 0 24 24" fill="none" xmlns="http://www.w3.org/2000/svg">
<g clip-path="url(#clip0_14_13)">
<path d="M24 4.3088C23.117 4.70048 22.168 4.96508 21.1721 5.08412C22.1886 4.47476 22.9694 3.50984 23.337 2.36C22.3855 2.92436 21.3318 3.33404 20.2102 3.55484C19.3121 2.59784 18.0324 2 16.6161 2C13.8969 2 11.6922 4.20452 11.6922 6.92373C11.6922 7.30965 11.7357 7.68549 11.8197 8.04585C7.72749 7.84053 4.09941 5.88021 1.67084 2.9012C1.247 3.6284 1.00412 4.47417 1.00412 5.37657C1.00412 7.08489 1.8734 8.59197 3.1946 9.47493C2.38748 9.44937 1.62824 9.22785 0.964401 8.85909C0.963841 8.87961 0.963841 8.90025 0.963841 8.92101C0.963841 11.3066 2.66113 13.2966 4.91365 13.7492C4.50049 13.8618 4.06549 13.9219 3.61644 13.9219C3.29916 13.9219 2.99077 13.8909 2.69005 13.8336C3.31669 15.7897 5.13505 17.2133 7.28977 17.2529C5.60461 18.5736 3.48157 19.3608 1.17456 19.3608C0.777121 19.3608 0.385201 19.3374 0 19.2919C2.17908 20.6891 4.76725 21.5042 7.54789 21.5042C16.6047 21.5042 21.5574 14.0015 21.5574 7.49457C21.5574 7.28109 21.5526 7.06881 21.5432 6.85749C22.5051 6.1634 23.3398 5.29628 23.9999 4.3088H24Z" fill="white"/>
</g>
<defs>
<clipPath id="clip0_14_13">
<rect width="24" height="19.5042" fill="white" transform="translate(0 2)"/>
</clipPath>
</defs>
</svg>
