<?xml version="1.0" standalone="no"?>
<svg viewBox="0 0 200 200" xmlns="http://www.w3.org/2000/svg">
  <path fill="#FFD6E8" d="M35.5,-61.3C47.9,-54.3,61.3,-48.7,68.9,-38.7C76.5,-28.8,78.2,-14.4,79.4,0.7C80.6,15.8,81.3,31.6,75.5,44.5C69.6,57.4,57.2,67.5,43.5,74C29.8,80.5,14.9,83.6,-0.3,84.1C-15.6,84.7,-31.1,82.8,-43.2,75.3C-55.3,67.9,-64,54.9,-67.7,41.4C-71.4,28,-70.2,14,-68.6,0.9C-66.9,-12.1,-64.9,-24.2,-60.1,-35.9C-55.4,-47.5,-47.9,-58.8,-37.4,-66.9C-26.9,-75.1,-13.5,-80.2,-1,-78.5C11.5,-76.8,23,-68.3,35.5,-61.3Z" transform="translate(100 100)" />
</svg>
