<?xml version="1.0" standalone="no"?>
<svg viewBox="0 0 200 200" xmlns="http://www.w3.org/2000/svg">
  <path fill="#FFD6E8" d="M25.4,-45.2C34.1,-38.9,43.1,-34.5,50,-27.3C56.9,-20.1,61.8,-10,62.2,0.2C62.6,10.5,58.6,21,55.5,34.9C52.5,48.8,50.3,66.1,41.2,77.4C32.1,88.8,16,94.2,3.6,87.9C-8.7,81.6,-17.5,63.5,-29.8,54.1C-42.2,44.6,-58.1,43.7,-68.1,36.1C-78,28.5,-81.9,14.3,-81.6,0.2C-81.2,-13.8,-76.6,-27.7,-66.9,-35.8C-57.3,-43.8,-42.6,-46.1,-30.6,-50.4C-18.6,-54.8,-9.3,-61.1,-0.5,-60.3C8.3,-59.4,16.7,-51.4,25.4,-45.2Z" transform="translate(100 100)" />
</svg>
