<?xml version="1.0" standalone="no"?>
<svg viewBox="0 0 200 200" xmlns="http://www.w3.org/2000/svg">
  <path fill="#FFD6E8" d="M43.3,-71.7C54.1,-68.8,59.4,-53,66.6,-39C73.9,-24.9,83.1,-12.4,85.9,1.6C88.6,15.6,84.9,31.3,74.5,39.8C64,48.3,46.8,49.8,33.2,50.3C19.7,50.9,9.9,50.6,-0.1,50.8C-10.1,51,-20.1,51.7,-31.2,49.7C-42.3,47.7,-54.5,43.1,-58.5,34.4C-62.6,25.6,-58.6,12.8,-60.7,-1.2C-62.8,-15.2,-70.9,-30.4,-66.4,-38.4C-61.9,-46.3,-44.7,-47,-31.5,-48.5C-18.3,-50,-9.2,-52.3,3.5,-58.5C16.3,-64.6,32.5,-74.6,43.3,-71.7Z" transform="translate(100 100)" />
</svg>
