<svg width="24" height="24" viewBox="0 0 24 24" fill="none" xmlns="http://www.w3.org/2000/svg">
<rect x="8.66602" y="2" width="6.66503" height="13.3301" rx="3.33252" fill="white"/>
<path fill-rule="evenodd" clip-rule="evenodd" d="M6 9.99804C6 11.3178 6.27783 13.3047 7.13985 14.988C8.01406 16.6951 9.53947 18.1625 11.9994 18.1625V16.8295C10.1931 16.8295 9.05201 15.7975 8.32633 14.3804C7.58847 12.9396 7.33301 11.1776 7.33301 9.99804H6ZM18 9.99804C18 11.3178 17.7222 13.3047 16.8601 14.988C15.9859 16.6951 14.4605 18.1625 12.0005 18.1625V16.8295C13.8069 16.8295 14.948 15.7975 15.6737 14.3804C16.4115 12.9396 16.667 11.1776 16.667 9.99804H18Z" fill="white"/>
<path fill-rule="evenodd" clip-rule="evenodd" d="M12.665 21.3286H12.682H12.6997H12.7172H12.7347H12.7522H12.7696H12.7869H12.8041H12.8212H12.8383H12.8553H12.8723H12.8892H12.906H12.9227H12.9393H12.9559H12.9725H12.9889H13.0053H13.0216H13.0379H13.054H13.0701H13.0862H13.1021H13.118H13.1339H13.1496H13.1653H13.181H13.1965H13.212H13.2274H13.2428H13.2581H13.2733H13.2884H13.3035H13.3185H13.3335H13.3484H13.3632H13.3779H13.3926H13.4072H13.4218H13.4363H13.4507H13.465H13.4793H13.4935H13.5077H13.5218H13.5358H13.5498H13.5636H13.5775H13.5912H13.6049H13.6186H13.6321H13.6456H13.6591H13.6725H13.6858H13.699H13.7122H13.7253H13.7384H13.7514H13.7643H13.7772H13.79H13.8027H13.8154H13.828H13.8405H13.853H13.8654H13.8778H13.8901H13.9023H13.9145H13.9266H13.9387H13.9507H13.9626H13.9745H13.9863H13.998H14.0097H14.0213H14.0329H14.0444H14.0559H14.0672H14.0786H14.0898H14.101H14.1122H14.1232H14.1343H14.1452H14.1561H14.167H14.1778H14.1885H14.1992H14.2098H14.2203H14.2308H14.2412H14.2516H14.2619H14.2722H14.2824H14.2925H14.3026H14.3126H14.3226H14.3325H14.3424H14.3522H14.3619H14.3716H14.3812H14.3908H14.4003H14.4097H14.4191H14.4285H14.4378H14.447H14.4562H14.4653H14.4743H14.4834H14.4923H14.5012H14.51H14.5188H14.5276H14.5362H14.5449H14.5534H14.5619H14.5704H14.5788H14.5871H14.5954H14.6037H14.6119H14.62H14.6281H14.6361H14.6441H14.652H14.6599H14.6677H14.6755H14.6832H14.6908H14.6984H14.706H14.7135H14.7209H14.7283H14.7357H14.743H14.7502H14.7574H14.7645H14.7716H14.7787H14.7857H14.7926H14.7995H14.8063H14.8131H14.8198H14.8265H14.8331H14.8397H14.8462H14.8527H14.8592H14.8655H14.8719H14.8782H14.8844H14.8906H14.8967H14.9028H14.9088H14.9148H14.9208H14.9267H14.9325H14.9383H14.9441H14.9498H14.9554H14.961H14.9666H14.9721H14.9775H14.983H14.9883H14.9936H14.9989H15.0042H15.0093H15.0145H15.0196H15.0246H15.0296H15.0345H15.0395H15.0443H15.0491H15.0539H15.0586H15.0633H15.0679H15.0725H15.077H15.0815H15.086H15.0904H15.0948H15.0991H15.1034H15.1076H15.1118H15.1159H15.12H15.1241H15.1281H15.1321H15.136H15.1399H15.1437H15.1475H15.1513H15.155H15.1586H15.1623H15.1658H15.1694H15.1729H15.1763H15.1798H15.1831H15.1865H15.1897H15.193H15.1962H15.1994H15.2025H15.2056H15.2086H15.2116H15.2146H15.2175H15.2204H15.2232H15.226H15.2288H15.2315H15.2342H15.2369H15.2395H15.242H15.2445H15.247H15.2495H15.2519H15.2543H15.2566H15.2589H15.2611H15.2634H15.2655H15.2677H15.2698H15.2718H15.2739H15.2759H15.2778H15.2797H15.2816H15.2834H15.2852H15.287H15.2887H15.2904H15.2921H15.2937H15.2953H15.2968H15.2983H15.2998H15.3013H15.3027H15.304H15.3054H15.3067H15.3079H15.3092H15.3103H15.3115H15.3126H15.3137H15.3148H15.3158H15.3168H15.3177H15.3186H15.3195H15.3204H15.3212H15.322H15.3227H15.3235H15.3241H15.3248H15.3254H15.326H15.3265H15.3271H15.3275H15.328H15.3284H15.3288H15.3292H15.3295H15.3298H15.3301H15.3303H15.3305H15.3307H15.3308H15.3309H15.331H15.331L15.331 21.9951L15.331 22.6616H15.331H15.3309H15.3308H15.3307H15.3305H15.3303H15.3301H15.3298H15.3295H15.3292H15.3288H15.3284H15.328H15.3275H15.3271H15.3265H15.326H15.3254H15.3248H15.3241H15.3235H15.3227H15.322H15.3212H15.3204H15.3195H15.3186H15.3177H15.3168H15.3158H15.3148H15.3137H15.3126H15.3115H15.3103H15.3092H15.3079H15.3067H15.3054H15.304H15.3027H15.3013H15.2998H15.2983H15.2968H15.2953H15.2937H15.2921H15.2904H15.2887H15.287H15.2852H15.2834H15.2816H15.2797H15.2778H15.2759H15.2739H15.2718H15.2698H15.2677H15.2655H15.2634H15.2611H15.2589H15.2566H15.2543H15.2519H15.2495H15.247H15.2445H15.242H15.2395H15.2369H15.2342H15.2315H15.2288H15.226H15.2232H15.2204H15.2175H15.2146H15.2116H15.2086H15.2056H15.2025H15.1994H15.1962H15.193H15.1897H15.1865H15.1831H15.1798H15.1763H15.1729H15.1694H15.1658H15.1623H15.1586H15.155H15.1513H15.1475H15.1437H15.1399H15.136H15.1321H15.1281H15.1241H15.12H15.1159H15.1118H15.1076H15.1034H15.0991H15.0948H15.0904H15.086H15.0815H15.077H15.0725H15.0679H15.0633H15.0586H15.0539H15.0491H15.0443H15.0395H15.0345H15.0296H15.0246H15.0196H15.0145H15.0093H15.0042H14.9989H14.9936H14.9883H14.983H14.9775H14.9721H14.9666H14.961H14.9554H14.9498H14.9441H14.9383H14.9325H14.9267H14.9208H14.9148H14.9088H14.9028H14.8967H14.8906H14.8844H14.8782H14.8719H14.8655H14.8592H14.8527H14.8462H14.8397H14.8331H14.8265H14.8198H14.8131H14.8063H14.7995H14.7926H14.7857H14.7787H14.7716H14.7645H14.7574H14.7502H14.743H14.7357H14.7283H14.7209H14.7135H14.706H14.6984H14.6908H14.6832H14.6755H14.6677H14.6599H14.652H14.6441H14.6361H14.6281H14.62H14.6119H14.6037H14.5954H14.5871H14.5788H14.5704H14.5619H14.5534H14.5449H14.5362H14.5276H14.5188H14.51H14.5012H14.4923H14.4834H14.4743H14.4653H14.4562H14.447H14.4378H14.4285H14.4191H14.4097H14.4003H14.3908H14.3812H14.3716H14.3619H14.3522H14.3424H14.3325H14.3226H14.3126H14.3026H14.2925H14.2824H14.2722H14.2619H14.2516H14.2412H14.2308H14.2203H14.2098H14.1992H14.1885H14.1778H14.167H14.1561H14.1452H14.1343H14.1232H14.1122H14.101H14.0898H14.0786H14.0672H14.0559H14.0444H14.0329H14.0213H14.0097H13.998H13.9863H13.9745H13.9626H13.9507H13.9387H13.9266H13.9145H13.9023H13.8901H13.8778H13.8654H13.853H13.8405H13.828H13.8154H13.8027H13.79H13.7772H13.7643H13.7514H13.7384H13.7253H13.7122H13.699H13.6858H13.6725H13.6591H13.6456H13.6321H13.6186H13.6049H13.5912H13.5775H13.5636H13.5498H13.5358H13.5218H13.5077H13.4935H13.4793H13.465H13.4507H13.4363H13.4218H13.4072H13.3926H13.3779H13.3632H13.3484H13.3335H13.3185H13.3035H13.2884H13.2733H13.2581H13.2428H13.2274H13.212H13.1965H13.181H13.1653H13.1496H13.1339H13.118H13.1021H13.0862H13.0701H13.054H13.0379H13.0216H13.0053H12.9889H12.9725H12.9559H12.9393H12.9227H12.906H12.8892H12.8723H12.8553H12.8383H12.8212H12.8041H12.7869H12.7696H12.7522H12.7347H12.7172H12.6997H12.682H12.6643H12.6465H12.6286H12.6107H12.5926H12.5746H12.5564H12.5382H12.5199H12.5015H12.483H12.4645H12.4459H12.4272H12.4085H12.3897H12.3708H12.3518H12.3328H12.3137H12.2945H12.2752H12.2559H12.2365H12.217H12.1974H12.1778H12.1581H12.1383H12.1185H12.0985H12.0785H12.0584H12.0383H12.018H11.9977H11.9773H11.9569H11.9363H11.9157H11.895H11.8743H11.8534H11.8325H11.8115H11.7904H11.7692H11.748H11.7267H11.7053H11.6838H11.6623H11.6407H11.619H11.5972H11.5754H11.5534H11.5314H11.5093H11.4871H11.4649H11.4426H11.4202H11.3977H11.3751H11.3525H11.3297H11.3069H11.284H11.2611H11.238H11.2149H11.1917H11.1684H11.1451H11.1216H11.0981H11.0745H11.0508H11.027H11.0032H10.9792H10.9552H10.9311H10.9069H10.8827H10.8583H10.8339H10.8094H10.7848H10.7601H10.7354H10.7105H10.6856H10.6606H10.6355H10.6104H10.5851H10.5598H10.5344H10.5089H10.4833H10.4576H10.4319H10.406H10.3801H10.3541H10.328H10.3018H10.2756H10.2492H10.2228H10.1963H10.1697H10.143H10.1162H10.0893H10.0624H10.0354H10.0083H9.98105H9.95377H9.92639H9.89893H9.87139H9.84375H9.81603H9.78823H9.76033H9.73235H9.70428H9.67613H9.64789H9.61956H9.59114H9.56263H9.53404H9.50535H9.47658H9.44773H9.41878H9.38974H9.36062H9.33141H9.3021H9.27271H9.24323H9.21366H9.184H9.15426H9.12442H9.09449H9.06447H9.03437H9.00417H8.97388H8.9435H8.91303H8.88247H8.85182H8.82108H8.79025H8.75933H8.72831H8.69721H8.66601C8.29791 22.6616 7.99951 22.3632 7.99951 21.9951C7.99951 21.627 8.29791 21.3286 8.66601 21.3286H8.69721H8.72831H8.75933H8.79025H8.82108H8.85182H8.88247H8.91303H8.9435H8.97388H9.00417H9.03437H9.06447H9.09449H9.12442H9.15426H9.184H9.21366H9.24323H9.27271H9.3021H9.33141H9.36062H9.38974H9.41878H9.44773H9.47658H9.50535H9.53404H9.56263H9.59114H9.61956H9.64789H9.67613H9.70428H9.73235H9.76033H9.78823H9.81603H9.84375H9.87139H9.89893H9.92639H9.95377H9.98105H10.0083H10.0354H10.0624H10.0893H10.1162H10.143H10.1697H10.1963H10.2228H10.2492H10.2756H10.3018H10.328H10.3541H10.3801H10.406H10.4319H10.4576H10.4833H10.5089H10.5344H10.5598H10.5851H10.6104H10.6355H10.6606H10.6856H10.7105H10.7354H10.7601H10.7848H10.8094H10.8339H10.8583H10.8827H10.9069H10.9311H10.9552H10.9792H11.0032H11.027H11.0508H11.0745H11.0981H11.1216H11.1451H11.1684H11.1917H11.2149H11.238H11.2611H11.284H11.3069H11.3297H11.332V17.9961H12.665V21.3286ZM15.331 21.9951V21.3286C15.6991 21.3286 15.9975 21.627 15.9975 21.9951C15.9975 22.3632 15.6991 22.6616 15.331 22.6616V21.9951Z" fill="white"/>
</svg>
