<svg width="280" height="280" viewBox="0 0 280 280" fill="none" xmlns="http://www.w3.org/2000/svg">
<path d="M140.703 269.645C136.695 269.632 132.705 269.116 128.826 268.109L128.062 267.897L127.352 267.542C101.711 254.686 80.0784 237.705 63.0559 217.07C48.9649 199.888 37.9789 180.381 30.5919 159.424C21.7582 134.333 17.5084 107.858 18.0452 81.2637C18.056 80.7055 18.0652 80.2744 18.0652 79.9775C18.0652 67.0496 25.2412 55.7063 36.3468 51.0789C44.8465 47.5373 122.02 15.8393 127.596 13.549C138.097 8.2873 149.299 12.6791 151.092 13.447C155.113 15.0911 226.455 44.2707 241.872 51.6119C257.761 59.1779 262 72.77 262 79.6084C262 110.568 256.638 139.502 246.063 165.607C237.523 186.738 225.419 206.245 210.278 223.28C181.065 256.154 151.844 267.809 151.562 267.911C148.07 269.113 144.396 269.7 140.703 269.645V269.645ZM133.831 252.624C136.365 253.192 142.197 254.044 145.999 252.657C150.828 250.896 175.285 238.213 198.14 212.494C229.717 176.959 245.739 132.288 245.762 79.7227C245.706 78.6577 244.95 71.0622 234.891 66.2726C219.773 59.0734 145.619 28.7521 144.872 28.4464L144.667 28.3596C143.113 27.7084 138.167 26.3367 134.758 28.1232L134.076 28.4414C133.249 28.7808 51.3289 62.4272 42.5921 66.0675C36.4804 68.614 34.3029 74.9227 34.3029 79.9775C34.3029 80.3469 34.2933 80.8842 34.2798 81.5787C33.5816 117.546 41.9046 206.05 133.831 252.624Z" fill="black"/>
<path d="M130.991 20.9311C130.991 20.9311 48.3266 54.8827 39.4697 58.5731C30.6127 62.2635 26.1842 71.1205 26.1842 79.9774C26.1842 88.8344 19.5415 204.405 130.991 260.284C130.991 260.284 141.106 263.083 148.781 260.284C156.455 257.485 253.881 210.248 253.881 79.6083C253.881 79.6083 253.881 66.3229 238.382 58.9422C222.882 51.5614 147.944 20.9311 147.944 20.9311C147.944 20.9311 138.741 16.8717 130.991 20.9311Z" fill="#FFD6E8"/>
<path opacity="0.2" d="M139.848 47.502V228.622C139.848 228.622 223.251 188.475 222.513 82.9298L139.848 47.502Z" fill="black"/>
<path d="M169.047 112.713C168.105 111.666 166.116 110.305 163.08 108.63C160.044 106.85 156.38 105.28 152.087 103.919C147.9 102.453 143.555 101.72 139.053 101.72C127.223 101.72 121.308 105.908 121.308 114.283C121.308 117.319 122.25 119.727 124.135 121.507C126.019 123.287 128.846 124.805 132.615 126.061C136.384 127.317 141.095 128.678 146.748 130.144C154.076 132.028 160.41 134.227 165.749 136.739C171.193 139.252 175.329 142.602 178.155 146.79C181.087 150.873 182.552 156.317 182.552 163.122C182.552 171.078 180.616 177.517 176.742 182.437C172.973 187.253 167.948 190.76 161.667 192.959C155.385 195.157 148.58 196.256 141.252 196.256C132.876 196.256 124.554 195 116.283 192.487C108.117 189.87 100.841 186.311 94.4548 181.809L104.034 163.122C104.976 164.064 106.651 165.32 109.059 166.89C111.467 168.356 114.398 169.874 117.853 171.444C121.308 172.91 125.077 174.166 129.16 175.213C133.243 176.26 137.378 176.784 141.566 176.784C153.501 176.784 159.468 172.963 159.468 165.32C159.468 162.075 158.264 159.457 155.856 157.468C153.448 155.479 150.046 153.804 145.649 152.443C141.356 151.082 136.331 149.564 130.573 147.889C123.454 145.9 117.539 143.701 112.828 141.293C108.222 138.781 104.767 135.692 102.464 132.028C100.16 128.259 99.0089 123.496 99.0089 117.738C99.0089 110.096 100.789 103.709 104.348 98.5795C108.012 93.3449 112.933 89.419 119.11 86.8017C125.286 84.0798 132.144 82.7188 139.681 82.7188C147.429 82.7188 154.652 83.9751 161.352 86.4876C168.053 89.0002 173.811 91.8792 178.626 95.1247L169.047 112.713Z" fill="black"/>
<path d="M169.047 112.713L165.614 115.803C166.617 116.917 168.098 117.475 169.587 117.3C171.075 117.125 172.386 116.238 173.103 114.922L169.047 112.713ZM163.08 108.63L160.744 112.614C160.779 112.635 160.814 112.655 160.849 112.674L163.08 108.63ZM152.087 103.919L150.561 108.278C150.605 108.293 150.648 108.308 150.691 108.321L152.087 103.919ZM124.135 121.507L127.306 118.149L124.135 121.507ZM132.615 126.061L131.154 130.443L131.154 130.443L132.615 126.061ZM146.748 130.144L145.589 134.615L145.598 134.617L146.748 130.144ZM165.749 136.739L163.783 140.918C163.793 140.923 163.804 140.928 163.814 140.933L165.749 136.739ZM178.155 146.79L174.327 149.374C174.352 149.411 174.377 149.447 174.403 149.483L178.155 146.79ZM176.742 182.437L173.113 179.58L173.105 179.591L176.742 182.437ZM161.667 192.959L160.141 188.599L160.141 188.599L161.667 192.959ZM116.283 192.487L114.873 196.886C114.896 196.893 114.918 196.9 114.94 196.907L116.283 192.487ZM94.4548 181.809L90.3446 179.702C89.2949 181.75 89.9128 184.258 91.7937 185.584L94.4548 181.809ZM104.034 163.122L107.3 159.856C106.256 158.812 104.776 158.33 103.317 158.559C101.858 158.788 100.597 159.701 99.9239 161.015L104.034 163.122ZM109.059 166.89L106.536 170.759C106.576 170.785 106.617 170.811 106.658 170.836L109.059 166.89ZM117.853 171.444L115.942 175.649C115.978 175.665 116.013 175.681 116.049 175.696L117.853 171.444ZM129.16 175.213L128.013 179.687L128.013 179.687L129.16 175.213ZM155.856 157.468L152.915 161.029L152.915 161.029L155.856 157.468ZM145.649 152.443L144.253 156.846C144.263 156.849 144.273 156.852 144.283 156.855L145.649 152.443ZM130.573 147.889L131.863 143.454C131.848 143.45 131.832 143.445 131.816 143.441L130.573 147.889ZM112.828 141.293L110.616 145.348C110.653 145.368 110.689 145.387 110.726 145.406L112.828 141.293ZM102.464 132.028L98.5226 134.437C98.5327 134.453 98.543 134.47 98.5533 134.486L102.464 132.028ZM104.348 98.5795L100.564 95.9308C100.561 95.936 100.557 95.9412 100.553 95.9464L104.348 98.5795ZM119.11 86.8017L120.912 91.0544C120.932 91.0458 120.952 91.0371 120.972 91.0283L119.11 86.8017ZM178.626 95.1247L182.683 97.3338C183.822 95.2416 183.183 92.6259 181.208 91.2945L178.626 95.1247ZM172.48 109.623C170.96 107.933 168.328 106.25 165.311 104.586L160.849 112.674C163.904 114.359 165.25 115.398 165.614 115.803L172.48 109.623ZM165.416 104.645C162.014 102.651 158.017 100.954 153.483 99.516L150.691 108.321C154.742 109.606 158.074 111.049 160.744 112.614L165.416 104.645ZM153.613 99.5593C148.928 97.9194 144.067 97.1015 139.053 97.1015V106.339C143.043 106.339 146.871 106.987 150.561 108.278L153.613 99.5593ZM139.053 97.1015C132.734 97.1015 127.167 98.1946 123.076 101.091C118.691 104.195 116.689 108.865 116.689 114.283H125.927C125.927 111.326 126.882 109.714 128.413 108.631C130.237 107.34 133.543 106.339 139.053 106.339V97.1015ZM116.689 114.283C116.689 118.353 117.996 122.062 120.963 124.865L127.306 118.149C126.505 117.392 125.927 116.285 125.927 114.283H116.689ZM120.963 124.865C123.527 127.286 127.054 129.076 131.154 130.443L134.075 121.679C130.637 120.533 128.511 119.287 127.306 118.149L120.963 124.865ZM131.154 130.443C135.057 131.743 139.876 133.134 145.589 134.615L147.907 125.673C142.313 124.223 137.71 122.891 134.075 121.679L131.154 130.443ZM145.598 134.617C152.72 136.448 158.767 138.558 163.783 140.918L167.716 132.56C162.053 129.895 155.433 127.608 147.898 125.671L145.598 134.617ZM163.814 140.933C168.636 143.159 172.054 146.006 174.327 149.374L181.984 144.206C178.603 139.198 173.751 135.345 167.685 132.546L163.814 140.933ZM174.403 149.483C176.603 152.546 177.934 156.947 177.934 163.122H187.171C187.171 155.686 185.571 149.199 181.907 144.096L174.403 149.483ZM177.934 163.122C177.934 170.326 176.189 175.673 173.113 179.58L180.371 185.294C185.042 179.361 187.171 171.83 187.171 163.122H177.934ZM173.105 179.591C169.928 183.649 165.665 186.666 160.141 188.599L163.192 197.318C170.231 194.854 176.018 190.857 180.379 185.284L173.105 179.591ZM160.141 188.599C154.397 190.609 148.113 191.638 141.252 191.638V200.875C149.047 200.875 156.373 199.705 163.192 197.318L160.141 188.599ZM141.252 191.638C133.346 191.638 125.475 190.453 117.625 188.068L114.94 196.907C123.632 199.547 132.407 200.875 141.252 200.875V191.638ZM117.693 188.089C109.93 185.601 103.084 182.241 97.1159 178.034L91.7937 185.584C98.5983 190.381 106.304 194.139 114.873 196.886L117.693 188.089ZM98.565 183.916L108.144 165.228L99.9239 161.015L90.3446 179.702L98.565 183.916ZM100.768 166.387C102.073 167.692 104.094 169.167 106.536 170.759L111.582 163.022C109.208 161.473 107.88 160.435 107.3 159.856L100.768 166.387ZM106.658 170.836C109.267 172.424 112.372 174.027 115.942 175.649L119.765 167.24C116.425 165.722 113.667 164.288 111.461 162.945L106.658 170.836ZM116.049 175.696C119.741 177.263 123.733 178.59 128.013 179.687L130.307 170.739C126.421 169.743 122.875 168.558 119.657 167.193L116.049 175.696ZM128.013 179.687C132.468 180.83 136.989 181.402 141.566 181.402V172.165C137.768 172.165 134.018 171.691 130.307 170.739L128.013 179.687ZM141.566 181.402C147.878 181.402 153.405 180.419 157.483 177.807C161.913 174.971 164.087 170.568 164.087 165.32H154.849C154.849 167.715 154.04 169.043 152.502 170.028C150.612 171.238 147.189 172.165 141.566 172.165V181.402ZM164.087 165.32C164.087 160.759 162.315 156.813 158.798 153.907L152.915 161.029C154.213 162.102 154.849 163.39 154.849 165.32H164.087ZM158.798 153.907C155.76 151.398 151.739 149.493 147.014 148.031L144.283 156.855C148.353 158.115 151.137 159.561 152.915 161.029L158.798 153.907ZM147.045 148.04C142.708 146.665 137.646 145.136 131.863 143.454L129.283 152.324C135.016 153.992 140.005 155.499 144.253 156.846L147.045 148.04ZM131.816 143.441C124.887 141.504 119.283 139.405 114.93 137.181L110.726 145.406C115.796 147.997 122.022 150.295 129.33 152.337L131.816 143.441ZM115.04 137.239C110.98 135.024 108.176 132.437 106.374 129.57L98.5533 134.486C101.358 138.948 105.463 142.537 110.616 145.348L115.04 137.239ZM106.405 129.62C104.66 126.765 103.628 122.899 103.628 117.738H94.3901C94.3901 124.093 95.6608 129.754 98.5226 134.437L106.405 129.62ZM103.628 117.738C103.628 110.823 105.23 105.411 108.143 101.213L100.553 95.9464C96.3473 102.008 94.3901 109.368 94.3901 117.738H103.628ZM108.132 101.228C111.274 96.7399 115.491 93.3512 120.912 91.0544L117.308 82.549C110.375 85.4868 104.751 89.95 100.564 95.9308L108.132 101.228ZM120.972 91.0283C126.497 88.5936 132.71 87.3375 139.681 87.3375V78.1C131.577 78.1 124.076 79.5659 117.247 82.5752L120.972 91.0283ZM139.681 87.3375C146.921 87.3375 153.59 88.5097 159.731 90.8123L162.974 82.163C155.714 79.4404 147.936 78.1 139.681 78.1V87.3375ZM159.731 90.8123C166.168 93.2261 171.589 95.9514 176.045 98.9548L181.208 91.2945C176.033 87.8071 169.938 84.7743 162.974 82.163L159.731 90.8123ZM174.57 92.9155L164.991 110.504L173.103 114.922L182.683 97.3338L174.57 92.9155Z" fill="#FFD6E8"/>
</svg>
